:SAMPLES-PER-SECOND 30
:FULLY-SPECIFIED
:DEGREES
85
root  32.7313 38.35 1.62542 -175.331 -85.6959 171.242
RightUpLeg  14.3061 -8.35308 -0.538643
RightLeg  11.0514 5.01979 1.48231
RightFoot  -18.765 -0.324675 -3.05231
RightToes  -4.65661e-009 0 -3.6325e-017
Spine  4.32053 1.60328 9.1061
Spine1  5.10522 3.4966 -6.99726
HEad  -8.665 -0.104656 -2.78178
LeftShoulder1  -0.378518 4.48967 -32.2577
LeftArm  7.95671 13.776 -41.8538
LeftForeArm  22.9191 -21.1507 -4.26215
LeftHand  -0.0477093 5.77796 -0.831406
RightShoulder  -0.860594 -5.91731 29.0572
RightArm  18.1419 5.76492 47.4749
RightForeArm  11.6952 14.7535 6.09243
RightHand  -0.132437 4.89346 -1.79593
LeftUpLeg  -16.6406 1.78827 -2.41729
LeftLeg  1.11114 11.6858 -1.39306
LeftFoot  0.814302 0.153215 -1.69006
LeftToes  9.86798e-010 -1.28139e-010 1.4132e-011
86
root  31.4845 38.1672 1.58887 -172.469 -84.8561 167.807
RightUpLeg  16.9806 -8.62982 -1.85778
RightLeg  11.16 6.43552 1.51128
RightFoot  -19.8636 -0.273388 -1.87361
RightToes  -4.65661e-009 0 -3.6325e-017
Spine  3.95347 1.83924 7.96428
Spine1  5.76678 3.84459 -7.19952
HEad  -8.63644 0.00574195 -2.1824
LeftShoulder1  -0.38157 4.50086 -32.1217
LeftArm  7.61989 13.4204 -41.3521
LeftForeArm  23.4508 -20.4445 -4.52164
LeftHand  -0.0396959 5.49753 -0.321897
RightShoulder  -0.9085 -6.01006 29.6646
RightArm  16.6685 4.06857 47.1404
RightForeArm  14.4943 12.3379 6.70643
RightHand  -0.0992335 3.68582 -1.52257
LeftUpLeg  -17.3325 2.31762 -3.42958
LeftLeg  6.02032 10.2726 -0.510274
LeftFoot  5.17199 -0.706621 4.65285
LeftToes  9.86798e-010 -1.28139e-010 1.4132e-011
87
root  30.1665 38.0093 1.58142 -163.783 -83.962 158.593
RightUpLeg  19.0638 -8.83483 -4.00132
RightLeg  12.561 8.1371 1.61849
RightFoot  -20.8079 -0.1284 0.13293
RightToes  -4.65661e-009 0 -3.6325e-017
Spine  2.98335 2.04808 6.00423
Spine1  6.77386 3.98372 -6.96009
HEad  -8.46224 0.288727 -1.84175
LeftShoulder1  -0.432291 4.62611 -32.3795
LeftArm  6.71858 12.858 -40.4195
LeftForeArm  24.1978 -19.1736 -5.06773
LeftHand  -0.0266313 4.91899 -0.313722
RightShoulder  -0.948687 -6.0776 30.2809
RightArm  14.2758 2.38304 47.1663
RightForeArm  18.0867 9.04478 7.09344
RightHand  -0.0814526 3.22797 -1.3416
LeftUpLeg  -17.7415 3.42425 -5.28449
LeftLeg  10.9805 9.35317 1.0637
LeftFoot  7.74171 -1.31409 7.60369
LeftToes  9.86798e-010 -1.28139e-010 1.4132e-011
88
root  28.8506 37.8951 1.58084 -151.138 -83.6605 145.569
RightUpLeg  20.1312 -8.23974 -6.06258
RightLeg  15.555 8.35836 2.0878
RightFoot  -21.1324 0.127878 3.15966
RightToes  -4.65661e-009 0 -3.6325e-017
Spine  2.13463 1.88162 4.05256
Spine1  7.3277 3.82753 -7.317
HEad  -7.78853 0.49805 -1.66754
LeftShoulder1  -0.422364 4.60495 -32.1974
LeftArm  4.37679 12.1763 -39.6757
LeftForeArm  26.6876 -17.055 -6.00306
LeftHand  -0.0435544 6.40555 -0.976626
RightShoulder  -0.987112 -6.14658 30.7821
RightArm  12.5056 -0.239487 47.4895
RightForeArm  20.3234 6.38229 6.84428
RightHand  -0.0787836 2.8688 -1.32232
LeftUpLeg  -18.1382 5.21351 -7.8359
LeftLeg  16.4896 7.22963 2.55787
LeftFoot  4.35256 -1.22579 8.67947
LeftToes  9.86798e-010 -1.28139e-010 1.4132e-011
89
root  27.6684 37.8922 1.62628 -144.677 -82.9985 138.771
RightUpLeg  19.4888 -6.13136 -7.33104
RightLeg  20.8219 7.93035 3.15136
RightFoot  -19.7722 0.455656 8.10566
RightToes  -4.65661e-009 0 -3.6325e-017
Spine  3.33548 1.99715 2.61775
Spine1  5.7443 3.79791 -7.76844
HEad  -7.07789 0.32926 -2.35111
LeftShoulder1  -0.528558 4.85344 -33.0168
LeftArm  1.84548 11.0782 -38.2083
LeftForeArm  29.7331 -14.0445 -7.29357
LeftHand  -0.0522272 7.16743 -0.800528
RightShoulder  -0.986362 -6.16613 30.4737
RightArm  11.3445 -4.25532 47.4977
RightForeArm  22.7558 5.28192 6.27362
RightHand  0.0404727 2.34338 0.4346
LeftUpLeg  -17.0983 6.09666 -9.21501
LeftLeg  18.8753 6.75385 2.89477
LeftFoot  1.97552 -1.13132 9.55901
LeftToes  9.86798e-010 -1.28139e-010 1.4132e-011
90
root  26.5842 37.9359 1.70598 -145.065 -81.4435 138.876
RightUpLeg  16.4517 -3.69752 -8.86578
RightLeg  29.2982 8.55349 4.96504
RightFoot  -16.0449 0.46036 14.1528
RightToes  -4.65661e-009 0 -3.6325e-017
Spine  3.74459 2.43695 1.75707
Spine1  5.77809 4.18 -8.9693
HEad  -6.77133 1.22065 -2.95952
LeftShoulder1  -0.566823 4.94445 -33.1796
LeftArm  -2.26444 9.93455 -37.9624
LeftForeArm  33.7215 -10.9887 -7.96326
LeftHand  -0.0582347 7.12294 -1.25844
RightShoulder  -0.920087 -6.01136 30.1093
RightArm  11.8491 -6.8595 47.4659
RightForeArm  23.8107 4.69823 6.434
RightHand  0.073546 1.12832 1.19508
LeftUpLeg  -15.658 6.96844 -10.1961
LeftLeg  20.1911 7.49941 3.25065
LeftFoot  -0.266544 -0.963372 9.92033
LeftToes  9.86798e-010 -1.28139e-010 1.4132e-011
91
root  25.5598 37.9683 1.79249 -144.379 -79.716 138.287
RightUpLeg  10.8494 -1.34512 -10.791
RightLeg  40.3695 8.62534 7.51032
RightFoot  -8.90472 -0.410653 17.4069
RightToes  -4.65661e-009 0 -3.6325e-017
Spine  4.52911 2.56747 0.363271
Spine1  4.74986 4.18545 -9.67141
HEad  -7.00152 1.69026 -3.71743
LeftShoulder1  -0.517284 4.83325 -32.7448
LeftArm  -3.77968 10.24 -38.2746
LeftForeArm  34.9757 -10.1936 -7.81055
LeftHand  -0.0607222 7.01693 -1.60634
RightShoulder  -0.932428 -6.04601 30.0777
RightArm  12.9173 -8.29184 47.0667
RightForeArm  25.2938 4.8958 6.81366
RightHand  0.0485449 1.46382 0.682839
LeftUpLeg  -14.4431 7.67987 -11.3303
LeftLeg  20.9108 8.23568 3.43168
LeftFoot  -2.35804 -0.758229 9.80194
LeftToes  9.86798e-010 -1.28139e-010 1.4132e-011
92
root  24.5825 38.0081 1.82614 -144.734 -78.6605 138.299
RightUpLeg  5.07718 0.978218 -11.7171
RightLeg  50.5443 7.5921 9.44272
RightFoot  1.14666 -1.77353 16.2972
RightToes  -4.65661e-009 0 -3.6325e-017
Spine  4.8998 2.36663 -2.01832
Spine1  5.13703 3.4562 -8.12563
HEad  -8.87754 2.85357 -4.89306
LeftShoulder1  -0.574621 4.94842 -33.6196
LeftArm  -3.36279 9.60958 -37.7911
LeftForeArm  34.3433 -10.1033 -7.96084
LeftHand  -0.0630252 7.23539 -2.05858
RightShoulder  -0.835729 -5.82603 29.3784
RightArm  13.8715 -8.75525 46.9217
RightForeArm  25.8071 6.2953 7.11089
RightHand  0.0317515 1.15115 0.456055
LeftUpLeg  -12.7488 7.73262 -11.9001
LeftLeg  21.5594 9.30189 3.77265
LeftFoot  -4.37768 -0.545433 9.36808
LeftToes  9.86798e-010 -1.28139e-010 1.4132e-011
93
root  23.6772 37.9853 1.8564 -146.254 -77.4065 139.12
RightUpLeg  -0.0978909 3.59509 -12.362
RightLeg  58.537 6.04832 10.0719
RightFoot  6.5083 -2.26956 14.5797
RightToes  -4.65661e-009 0 -3.6325e-017
Spine  6.0845 2.20889 -3.86392
Spine1  5.18282 2.91572 -7.81629
HEad  -10.2934 4.55462 -5.20629
LeftShoulder1  -0.548128 4.89882 -33.1359
LeftArm  -2.42991 9.20537 -38.4226
LeftForeArm  33.8227 -10.5022 -8.12103
LeftHand  -0.0882816 8.35158 -1.73987
RightShoulder  -0.878553 -5.91927 29.7702
RightArm  14.66 -8.58695 46.0429
RightForeArm  24.4838 8.14131 7.17239
RightHand  0.0258698 2.0184 0.233987
LeftUpLeg  -10.8805 7.63311 -12.3673
LeftLeg  22.4041 10.7407 4.13521
LeftFoot  -6.47861 -0.340907 8.94385
LeftToes  9.86798e-010 -1.28139e-010 1.4132e-011
94
root  22.7736 38.0528 1.87559 -147.423 -77.2664 139.953
RightUpLeg  -4.90051 5.04244 -12.245
RightLeg  63.7331 4.20147 8.69298
RightFoot  3.2729 -1.64656 12.9849
RightToes  -4.65661e-009 0 -3.6325e-017
Spine  6.19277 1.7302 -5.46038
Spine1  5.93544 1.9536 -6.32532
HEad  -11.1711 5.44366 -6.03245
LeftShoulder1  -0.561643 4.91816 -33.5293
LeftArm  -1.24836 7.69065 -38.5455
LeftForeArm  33.4142 -10.623 -8.43863
LeftHand  -0.0846551 8.05782 -1.62629
RightShoulder  -0.841065 -5.83944 29.3961
RightArm  14.7287 -8.19534 45.8908
RightForeArm  21.4169 9.89936 6.78497
RightHand  0.0129553 2.593 -0.0174504
LeftUpLeg  -8.94491 7.30302 -12.2323
LeftLeg  22.494 11.4119 4.07272
LeftFoot  -8.05591 -0.203081 8.75558
LeftToes  9.86798e-010 -1.28139e-010 1.4132e-011
95
root  21.8384 38.1784 1.88725 -147.891 -77.9181 140.297
RightUpLeg  -9.34007 5.85002 -11.6655
RightLeg  65.591 3.29531 7.33664
RightFoot  3.13254 -1.30847 10.4589
RightToes  -4.65661e-009 0 -3.6325e-017
Spine  6.41311 1.06614 -5.9156
Spine1  5.84563 1.12603 -5.74386
HEad  -11.0867 6.20996 -6.10967
LeftShoulder1  -0.454115 4.66889 -32.8487
LeftArm  -1.4245 6.12533 -39.6019
LeftForeArm  35.0435 -10.1634 -8.61265
LeftHand  -0.103041 8.61056 -1.87756
RightShoulder  -0.912167 -6.01234 29.7801
RightArm  15.379 -7.96937 45.3459
RightForeArm  18.2348 11.7331 6.39508
RightHand  -0.00226282 2.72272 -0.245802
LeftUpLeg  -6.79656 6.52317 -11.8318
LeftLeg  21.8867 11.7754 3.85096
LeftFoot  -9.35705 -0.0904884 8.46498
LeftToes  9.86798e-010 -1.28139e-010 1.4132e-011
96
root  20.8956 38.317 1.89305 -149.306 -78.5577 141.741
RightUpLeg  -13.3145 6.88747 -10.7472
RightLeg  64.4029 2.93397 6.10866
RightFoot  2.93809 -0.995067 8.07318
RightToes  -4.65661e-009 0 -3.6325e-017
Spine  6.56633 0.607473 -5.97737
Spine1  5.51661 0.565293 -5.14439
HEad  -10.0309 6.02565 -5.84005
LeftShoulder1  -0.455587 4.67273 -32.8272
LeftArm  -2.28958 4.05762 -40.4341
LeftForeArm  36.2048 -9.16505 -8.78579
LeftHand  -0.0653597 7.84496 -1.02461
RightShoulder  -0.909784 -6.0154 29.6399
RightArm  15.9911 -7.81461 45.2689
RightForeArm  16.2709 13.1607 6.04353
RightHand  -0.0163309 3.08646 -0.449129
LeftUpLeg  -4.61787 5.95253 -11.1828
LeftLeg  20.9282 12.0699 3.39896
LeftFoot  -10.5185 0.00460476 8.2063
LeftToes  9.86798e-010 -1.28139e-010 1.4132e-011
97
root  19.9561 38.4314 1.88466 -151.044 -79.3183 143.392
RightUpLeg  -16.188 7.97417 -9.68416
RightLeg  60.0643 3.04176 5.23206
RightFoot  1.49154 -0.743928 6.73188
RightToes  -4.65661e-009 0 -3.6325e-017
Spine  6.73695 0.323964 -6.01833
Spine1  5.30254 0.156627 -4.26876
HEad  -9.06465 6.24411 -5.34936
LeftShoulder1  -0.382056 4.48469 -32.8114
LeftArm  -2.73821 1.9641 -41.3893
LeftForeArm  36.9596 -8.67784 -8.83549
LeftHand  -0.0605557 7.41346 -1.00791
RightShoulder  -0.892416 -5.98683 29.35
RightArm  16.9477 -7.60443 45.4499
RightForeArm  14.6424 14.3166 5.8442
RightHand  -0.0560401 3.34657 -0.99785
LeftUpLeg  -2.23044 5.79145 -10.4088
LeftLeg  19.8267 11.8011 2.82703
LeftFoot  -11.7549 0.0992658 7.99649
LeftToes  9.86798e-010 -1.28139e-010 1.4132e-011
98
root  18.9918 38.5155 1.86006 -152.701 -79.9684 144.843
RightUpLeg  -17.8593 9.20101 -8.78035
RightLeg  52.8784 3.38715 4.42105
RightFoot  -0.604934 -0.695138 7.33054
RightToes  -4.65661e-009 0 -3.6325e-017
Spine  6.90835 0.0617535 -6.09719
Spine1  5.25761 -0.18715 -3.48965
HEad  -8.31651 6.09742 -4.70668
LeftShoulder1  -0.396391 4.52054 -32.8079
LeftArm  -1.33389 -0.0315144 -42.1559
LeftForeArm  35.5118 -9.23519 -9.08386
LeftHand  -0.0661414 7.61649 -0.841687
RightShoulder  -0.858249 -5.90238 29.1793
RightArm  18.3227 -6.96997 45.6792
RightForeArm  13.8768 15.0658 5.80992
RightHand  -0.0776221 2.811 -1.31834
LeftUpLeg  0.350746 5.56471 -9.80623
LeftLeg  18.5303 11.6251 2.41983
LeftFoot  -12.9096 0.182534 7.61069
LeftToes  9.86798e-010 -1.28139e-010 1.4132e-011
